<mxfile host="app.diagrams.net" modified="2024-02-24T00:41:29.150Z" agent="Mozilla/5.0 (X11; Ubuntu; Linux x86_64; rv:123.0) Gecko/20100101 Firefox/123.0" etag="SLAMsK-l4ORbq6uvggLR" version="23.1.6" type="github">
  <diagram name="Page-1" id="pyghuf_CWXDMgK_pi5fP">
    <mxGraphModel dx="2028" dy="1053" grid="1" gridSize="10" guides="1" tooltips="1" connect="1" arrows="1" fold="1" page="1" pageScale="1" pageWidth="1100" pageHeight="850" math="0" shadow="0">
      <root>
        <mxCell id="0" />
        <mxCell id="1" parent="0" />
        <mxCell id="8REWzd8MuH-BiJDe0KrL-76" value="" style="edgeStyle=orthogonalEdgeStyle;rounded=0;orthogonalLoop=1;jettySize=auto;html=1;" edge="1" parent="1" source="8REWzd8MuH-BiJDe0KrL-38" target="8REWzd8MuH-BiJDe0KrL-66">
          <mxGeometry relative="1" as="geometry" />
        </mxCell>
        <mxCell id="8REWzd8MuH-BiJDe0KrL-77" style="edgeStyle=orthogonalEdgeStyle;rounded=0;orthogonalLoop=1;jettySize=auto;html=1;entryX=0.25;entryY=0;entryDx=0;entryDy=0;" edge="1" parent="1" source="8REWzd8MuH-BiJDe0KrL-38" target="8REWzd8MuH-BiJDe0KrL-67">
          <mxGeometry relative="1" as="geometry">
            <Array as="points">
              <mxPoint x="1065" y="300" />
              <mxPoint x="1065" y="300" />
            </Array>
          </mxGeometry>
        </mxCell>
        <mxCell id="8REWzd8MuH-BiJDe0KrL-38" value="&lt;p style=&quot;margin:0px;margin-top:4px;text-align:center;&quot;&gt;&lt;i&gt;&amp;lt;&amp;lt;Abstract&amp;gt;&amp;gt;&lt;/i&gt;&lt;/p&gt;&lt;p style=&quot;margin:0px;margin-top:4px;text-align:center;&quot;&gt;&lt;b&gt;Color&lt;/b&gt;&lt;br&gt;&lt;/p&gt;&lt;hr size=&quot;1&quot;&gt;&amp;nbsp;- complementario: Color;&lt;br&gt;- intensidad: Intensidad;&lt;br&gt;- tipo: Tipo;&lt;br&gt;&lt;hr size=&quot;1&quot;&gt;&lt;p style=&quot;margin:0px;margin-left:4px;&quot;&gt;+ getTipo():TIpo;&lt;br&gt;+ setIntensidad():Intensidad;&lt;br&gt;+ getIntensidad():Intensidad;&lt;br&gt;+ getComplementario():Color;&lt;/p&gt;&lt;p style=&quot;margin:0px;margin-left:4px;&quot;&gt;+ setTipo(Tipo);&lt;br&gt;&lt;/p&gt;" style="verticalAlign=top;align=left;overflow=fill;html=1;whiteSpace=wrap;" vertex="1" parent="1">
          <mxGeometry x="990" y="60" width="190" height="180" as="geometry" />
        </mxCell>
        <mxCell id="8REWzd8MuH-BiJDe0KrL-39" value="«Abstract»&lt;br&gt;ColorSecundario" style="html=1;dropTarget=0;whiteSpace=wrap;" vertex="1" parent="1">
          <mxGeometry x="1310" y="330" width="150" height="50" as="geometry" />
        </mxCell>
        <mxCell id="8REWzd8MuH-BiJDe0KrL-41" value="&lt;p style=&quot;margin:0px;margin-top:4px;text-align:center;&quot;&gt;&lt;i&gt;&amp;lt;&amp;lt;Abstract&amp;gt;&amp;gt;&lt;/i&gt;&lt;b&gt;&lt;br&gt;&lt;/b&gt;&lt;/p&gt;&lt;p style=&quot;margin:0px;margin-top:4px;text-align:center;&quot;&gt;&lt;b&gt;ColorPrimario&lt;/b&gt;&lt;br&gt;&lt;/p&gt;&lt;hr size=&quot;1&quot;&gt;&lt;br&gt;&lt;hr size=&quot;1&quot;&gt;&lt;p style=&quot;margin:0px;margin-left:4px;&quot;&gt;+ combinarCon(Primario):Color;&lt;br&gt;+ combinarConAzul():Color;&lt;br&gt;+ combinarConRojo():Color;&lt;br&gt;+ combinarConAmarillo():Color;&lt;/p&gt;" style="verticalAlign=top;align=left;overflow=fill;html=1;whiteSpace=wrap;" vertex="1" parent="1">
          <mxGeometry x="710" y="310" width="190" height="150" as="geometry" />
        </mxCell>
        <mxCell id="8REWzd8MuH-BiJDe0KrL-42" value="Amarillo" style="swimlane;fontStyle=1;align=center;verticalAlign=top;childLayout=stackLayout;horizontal=1;startSize=26;horizontalStack=0;resizeParent=1;resizeParentMax=0;resizeLast=0;collapsible=1;marginBottom=0;whiteSpace=wrap;html=1;" vertex="1" parent="1">
          <mxGeometry x="480" y="560" width="190" height="200" as="geometry" />
        </mxCell>
        <mxCell id="8REWzd8MuH-BiJDe0KrL-43" value="- tipo: Tipo;&lt;br&gt;- intensidad: Intensidad;" style="text;strokeColor=none;fillColor=none;align=left;verticalAlign=top;spacingLeft=4;spacingRight=4;overflow=hidden;rotatable=0;points=[[0,0.5],[1,0.5]];portConstraint=eastwest;whiteSpace=wrap;html=1;" vertex="1" parent="8REWzd8MuH-BiJDe0KrL-42">
          <mxGeometry y="26" width="190" height="34" as="geometry" />
        </mxCell>
        <mxCell id="8REWzd8MuH-BiJDe0KrL-44" value="" style="line;strokeWidth=1;fillColor=none;align=left;verticalAlign=middle;spacingTop=-1;spacingLeft=3;spacingRight=3;rotatable=0;labelPosition=right;points=[];portConstraint=eastwest;strokeColor=inherit;" vertex="1" parent="8REWzd8MuH-BiJDe0KrL-42">
          <mxGeometry y="60" width="190" height="8" as="geometry" />
        </mxCell>
        <mxCell id="8REWzd8MuH-BiJDe0KrL-45" value="+ Amarillo();&lt;br&gt;&lt;br&gt;+ getComplementario():Color;&lt;br&gt;+ combinarConAzul():Color;&lt;br&gt;+ combinarConRojo():Color;&lt;br&gt;+ combinarConAmarillo():Color;" style="text;strokeColor=none;fillColor=none;align=left;verticalAlign=top;spacingLeft=4;spacingRight=4;overflow=hidden;rotatable=0;points=[[0,0.5],[1,0.5]];portConstraint=eastwest;whiteSpace=wrap;html=1;" vertex="1" parent="8REWzd8MuH-BiJDe0KrL-42">
          <mxGeometry y="68" width="190" height="132" as="geometry" />
        </mxCell>
        <mxCell id="8REWzd8MuH-BiJDe0KrL-46" value="Azul" style="swimlane;fontStyle=1;align=center;verticalAlign=top;childLayout=stackLayout;horizontal=1;startSize=26;horizontalStack=0;resizeParent=1;resizeParentMax=0;resizeLast=0;collapsible=1;marginBottom=0;whiteSpace=wrap;html=1;" vertex="1" parent="1">
          <mxGeometry x="690" y="560" width="190" height="200" as="geometry" />
        </mxCell>
        <mxCell id="8REWzd8MuH-BiJDe0KrL-47" value="- tipo: Tipo;&lt;br&gt;- intensidad: Intensidad;" style="text;strokeColor=none;fillColor=none;align=left;verticalAlign=top;spacingLeft=4;spacingRight=4;overflow=hidden;rotatable=0;points=[[0,0.5],[1,0.5]];portConstraint=eastwest;whiteSpace=wrap;html=1;" vertex="1" parent="8REWzd8MuH-BiJDe0KrL-46">
          <mxGeometry y="26" width="190" height="34" as="geometry" />
        </mxCell>
        <mxCell id="8REWzd8MuH-BiJDe0KrL-48" value="" style="line;strokeWidth=1;fillColor=none;align=left;verticalAlign=middle;spacingTop=-1;spacingLeft=3;spacingRight=3;rotatable=0;labelPosition=right;points=[];portConstraint=eastwest;strokeColor=inherit;" vertex="1" parent="8REWzd8MuH-BiJDe0KrL-46">
          <mxGeometry y="60" width="190" height="8" as="geometry" />
        </mxCell>
        <mxCell id="8REWzd8MuH-BiJDe0KrL-49" value="+ Azul();&lt;br&gt;&lt;br&gt;+ getComplementario():Color;&lt;br&gt;+ combinarConAzul():Color;&lt;br&gt;+ combinarConRojo():Color;&lt;br&gt;+ combinarConAmarillo():Color;" style="text;strokeColor=none;fillColor=none;align=left;verticalAlign=top;spacingLeft=4;spacingRight=4;overflow=hidden;rotatable=0;points=[[0,0.5],[1,0.5]];portConstraint=eastwest;whiteSpace=wrap;html=1;" vertex="1" parent="8REWzd8MuH-BiJDe0KrL-46">
          <mxGeometry y="68" width="190" height="132" as="geometry" />
        </mxCell>
        <mxCell id="8REWzd8MuH-BiJDe0KrL-50" value="Rojo" style="swimlane;fontStyle=1;align=center;verticalAlign=top;childLayout=stackLayout;horizontal=1;startSize=26;horizontalStack=0;resizeParent=1;resizeParentMax=0;resizeLast=0;collapsible=1;marginBottom=0;whiteSpace=wrap;html=1;" vertex="1" parent="1">
          <mxGeometry x="890" y="560" width="190" height="200" as="geometry" />
        </mxCell>
        <mxCell id="8REWzd8MuH-BiJDe0KrL-51" value="- tipo: Tipo;&lt;br&gt;- intensidad: Intensidad;" style="text;strokeColor=none;fillColor=none;align=left;verticalAlign=top;spacingLeft=4;spacingRight=4;overflow=hidden;rotatable=0;points=[[0,0.5],[1,0.5]];portConstraint=eastwest;whiteSpace=wrap;html=1;" vertex="1" parent="8REWzd8MuH-BiJDe0KrL-50">
          <mxGeometry y="26" width="190" height="34" as="geometry" />
        </mxCell>
        <mxCell id="8REWzd8MuH-BiJDe0KrL-52" value="" style="line;strokeWidth=1;fillColor=none;align=left;verticalAlign=middle;spacingTop=-1;spacingLeft=3;spacingRight=3;rotatable=0;labelPosition=right;points=[];portConstraint=eastwest;strokeColor=inherit;" vertex="1" parent="8REWzd8MuH-BiJDe0KrL-50">
          <mxGeometry y="60" width="190" height="8" as="geometry" />
        </mxCell>
        <mxCell id="8REWzd8MuH-BiJDe0KrL-53" value="+ Rojo();&lt;br&gt;&lt;br&gt;+ getComplementario():Color;&lt;br&gt;+ combinarConAzul():Color;&lt;br&gt;+ combinarConRojo():Color;&lt;br&gt;+ combinarConAmarillo():Color;" style="text;strokeColor=none;fillColor=none;align=left;verticalAlign=top;spacingLeft=4;spacingRight=4;overflow=hidden;rotatable=0;points=[[0,0.5],[1,0.5]];portConstraint=eastwest;whiteSpace=wrap;html=1;" vertex="1" parent="8REWzd8MuH-BiJDe0KrL-50">
          <mxGeometry y="68" width="190" height="132" as="geometry" />
        </mxCell>
        <mxCell id="8REWzd8MuH-BiJDe0KrL-54" value="Verde" style="swimlane;fontStyle=1;align=center;verticalAlign=top;childLayout=stackLayout;horizontal=1;startSize=26;horizontalStack=0;resizeParent=1;resizeParentMax=0;resizeLast=0;collapsible=1;marginBottom=0;whiteSpace=wrap;html=1;" vertex="1" parent="1">
          <mxGeometry x="1130" y="560" width="180" height="150" as="geometry" />
        </mxCell>
        <mxCell id="8REWzd8MuH-BiJDe0KrL-55" value="- tipo: Tipo;&lt;br&gt;- intensidad: Intensidad;" style="text;strokeColor=none;fillColor=none;align=left;verticalAlign=top;spacingLeft=4;spacingRight=4;overflow=hidden;rotatable=0;points=[[0,0.5],[1,0.5]];portConstraint=eastwest;whiteSpace=wrap;html=1;" vertex="1" parent="8REWzd8MuH-BiJDe0KrL-54">
          <mxGeometry y="26" width="180" height="44" as="geometry" />
        </mxCell>
        <mxCell id="8REWzd8MuH-BiJDe0KrL-56" value="" style="line;strokeWidth=1;fillColor=none;align=left;verticalAlign=middle;spacingTop=-1;spacingLeft=3;spacingRight=3;rotatable=0;labelPosition=right;points=[];portConstraint=eastwest;strokeColor=inherit;" vertex="1" parent="8REWzd8MuH-BiJDe0KrL-54">
          <mxGeometry y="70" width="180" height="8" as="geometry" />
        </mxCell>
        <mxCell id="8REWzd8MuH-BiJDe0KrL-57" value="+ Verde();&lt;br&gt;&lt;br&gt;+ getComplementario():Color;" style="text;strokeColor=none;fillColor=none;align=left;verticalAlign=top;spacingLeft=4;spacingRight=4;overflow=hidden;rotatable=0;points=[[0,0.5],[1,0.5]];portConstraint=eastwest;whiteSpace=wrap;html=1;" vertex="1" parent="8REWzd8MuH-BiJDe0KrL-54">
          <mxGeometry y="78" width="180" height="72" as="geometry" />
        </mxCell>
        <mxCell id="8REWzd8MuH-BiJDe0KrL-58" value="Violeta" style="swimlane;fontStyle=1;align=center;verticalAlign=top;childLayout=stackLayout;horizontal=1;startSize=26;horizontalStack=0;resizeParent=1;resizeParentMax=0;resizeLast=0;collapsible=1;marginBottom=0;whiteSpace=wrap;html=1;" vertex="1" parent="1">
          <mxGeometry x="1320" y="560" width="180" height="150" as="geometry" />
        </mxCell>
        <mxCell id="8REWzd8MuH-BiJDe0KrL-59" value="- tipo: Tipo;&lt;br&gt;- intensidad: Intensidad;" style="text;strokeColor=none;fillColor=none;align=left;verticalAlign=top;spacingLeft=4;spacingRight=4;overflow=hidden;rotatable=0;points=[[0,0.5],[1,0.5]];portConstraint=eastwest;whiteSpace=wrap;html=1;" vertex="1" parent="8REWzd8MuH-BiJDe0KrL-58">
          <mxGeometry y="26" width="180" height="44" as="geometry" />
        </mxCell>
        <mxCell id="8REWzd8MuH-BiJDe0KrL-60" value="" style="line;strokeWidth=1;fillColor=none;align=left;verticalAlign=middle;spacingTop=-1;spacingLeft=3;spacingRight=3;rotatable=0;labelPosition=right;points=[];portConstraint=eastwest;strokeColor=inherit;" vertex="1" parent="8REWzd8MuH-BiJDe0KrL-58">
          <mxGeometry y="70" width="180" height="8" as="geometry" />
        </mxCell>
        <mxCell id="8REWzd8MuH-BiJDe0KrL-61" value="+ Violeta();&lt;br&gt;&lt;br&gt;+ getComplementario():Color;" style="text;strokeColor=none;fillColor=none;align=left;verticalAlign=top;spacingLeft=4;spacingRight=4;overflow=hidden;rotatable=0;points=[[0,0.5],[1,0.5]];portConstraint=eastwest;whiteSpace=wrap;html=1;" vertex="1" parent="8REWzd8MuH-BiJDe0KrL-58">
          <mxGeometry y="78" width="180" height="72" as="geometry" />
        </mxCell>
        <mxCell id="8REWzd8MuH-BiJDe0KrL-62" value="Naranja" style="swimlane;fontStyle=1;align=center;verticalAlign=top;childLayout=stackLayout;horizontal=1;startSize=26;horizontalStack=0;resizeParent=1;resizeParentMax=0;resizeLast=0;collapsible=1;marginBottom=0;whiteSpace=wrap;html=1;" vertex="1" parent="1">
          <mxGeometry x="1510" y="560" width="180" height="150" as="geometry" />
        </mxCell>
        <mxCell id="8REWzd8MuH-BiJDe0KrL-63" value="- tipo: Tipo;&lt;br&gt;- intensidad: Intensidad;" style="text;strokeColor=none;fillColor=none;align=left;verticalAlign=top;spacingLeft=4;spacingRight=4;overflow=hidden;rotatable=0;points=[[0,0.5],[1,0.5]];portConstraint=eastwest;whiteSpace=wrap;html=1;" vertex="1" parent="8REWzd8MuH-BiJDe0KrL-62">
          <mxGeometry y="26" width="180" height="44" as="geometry" />
        </mxCell>
        <mxCell id="8REWzd8MuH-BiJDe0KrL-64" value="" style="line;strokeWidth=1;fillColor=none;align=left;verticalAlign=middle;spacingTop=-1;spacingLeft=3;spacingRight=3;rotatable=0;labelPosition=right;points=[];portConstraint=eastwest;strokeColor=inherit;" vertex="1" parent="8REWzd8MuH-BiJDe0KrL-62">
          <mxGeometry y="70" width="180" height="8" as="geometry" />
        </mxCell>
        <mxCell id="8REWzd8MuH-BiJDe0KrL-65" value="+ Naranja();&lt;br&gt;&lt;br&gt;+ getComplementario():Color;" style="text;strokeColor=none;fillColor=none;align=left;verticalAlign=top;spacingLeft=4;spacingRight=4;overflow=hidden;rotatable=0;points=[[0,0.5],[1,0.5]];portConstraint=eastwest;whiteSpace=wrap;html=1;" vertex="1" parent="8REWzd8MuH-BiJDe0KrL-62">
          <mxGeometry y="78" width="180" height="72" as="geometry" />
        </mxCell>
        <mxCell id="8REWzd8MuH-BiJDe0KrL-66" value="&lt;p style=&quot;margin:0px;margin-top:4px;text-align:center;text-decoration:underline;&quot;&gt;&lt;b&gt;Tipo:Enum&lt;/b&gt;&lt;/p&gt;&lt;hr&gt;&lt;p style=&quot;margin:0px;margin-left:8px;&quot;&gt;+FRIO: Tipo;&lt;/p&gt;&lt;p style=&quot;margin:0px;margin-left:8px;&quot;&gt;+CALIDO:Tipo;&lt;br&gt;&lt;/p&gt;" style="verticalAlign=top;align=left;overflow=fill;html=1;whiteSpace=wrap;" vertex="1" parent="1">
          <mxGeometry x="1100" y="300" width="110" height="70" as="geometry" />
        </mxCell>
        <mxCell id="8REWzd8MuH-BiJDe0KrL-67" value="&lt;p style=&quot;margin:0px;margin-top:4px;text-align:center;text-decoration:underline;&quot;&gt;&lt;b&gt;Intensidad:Enum&lt;/b&gt;&lt;/p&gt;&lt;hr&gt;+ SUAVE: Intensidad;&lt;br&gt;+ MEDIO: Intensidad;&lt;br&gt;+ FUERTE: Intensdad;&lt;div&gt;&lt;br/&gt;&lt;/div&gt;" style="verticalAlign=top;align=left;overflow=fill;html=1;whiteSpace=wrap;" vertex="1" parent="1">
          <mxGeometry x="1025" y="395" width="160" height="90" as="geometry" />
        </mxCell>
        <mxCell id="8REWzd8MuH-BiJDe0KrL-68" value="Extends" style="endArrow=block;endSize=16;endFill=0;html=1;rounded=0;entryX=0.5;entryY=1;entryDx=0;entryDy=0;exitX=0.5;exitY=0;exitDx=0;exitDy=0;" edge="1" parent="1" source="8REWzd8MuH-BiJDe0KrL-58" target="8REWzd8MuH-BiJDe0KrL-39">
          <mxGeometry width="160" relative="1" as="geometry">
            <mxPoint x="1310" y="450" as="sourcePoint" />
            <mxPoint x="1470" y="450" as="targetPoint" />
          </mxGeometry>
        </mxCell>
        <mxCell id="8REWzd8MuH-BiJDe0KrL-69" value="Extends" style="endArrow=block;endSize=16;endFill=0;html=1;rounded=0;entryX=0.25;entryY=1;entryDx=0;entryDy=0;exitX=0.5;exitY=0;exitDx=0;exitDy=0;" edge="1" parent="1" source="8REWzd8MuH-BiJDe0KrL-54" target="8REWzd8MuH-BiJDe0KrL-39">
          <mxGeometry width="160" relative="1" as="geometry">
            <mxPoint x="1320" y="460" as="sourcePoint" />
            <mxPoint x="1480" y="460" as="targetPoint" />
          </mxGeometry>
        </mxCell>
        <mxCell id="8REWzd8MuH-BiJDe0KrL-70" value="Extends" style="endArrow=block;endSize=16;endFill=0;html=1;rounded=0;entryX=0.75;entryY=1;entryDx=0;entryDy=0;exitX=0.5;exitY=0;exitDx=0;exitDy=0;" edge="1" parent="1" source="8REWzd8MuH-BiJDe0KrL-62" target="8REWzd8MuH-BiJDe0KrL-39">
          <mxGeometry width="160" relative="1" as="geometry">
            <mxPoint x="1330" y="470" as="sourcePoint" />
            <mxPoint x="1490" y="470" as="targetPoint" />
          </mxGeometry>
        </mxCell>
        <mxCell id="8REWzd8MuH-BiJDe0KrL-71" value="Extends" style="endArrow=block;endSize=16;endFill=0;html=1;rounded=0;entryX=0.75;entryY=1;entryDx=0;entryDy=0;exitX=0.5;exitY=0;exitDx=0;exitDy=0;" edge="1" parent="1" source="8REWzd8MuH-BiJDe0KrL-50" target="8REWzd8MuH-BiJDe0KrL-41">
          <mxGeometry width="160" relative="1" as="geometry">
            <mxPoint x="800" y="500" as="sourcePoint" />
            <mxPoint x="960" y="500" as="targetPoint" />
          </mxGeometry>
        </mxCell>
        <mxCell id="8REWzd8MuH-BiJDe0KrL-72" value="Extends" style="endArrow=block;endSize=16;endFill=0;html=1;rounded=0;entryX=0.25;entryY=1;entryDx=0;entryDy=0;exitX=0.5;exitY=0;exitDx=0;exitDy=0;" edge="1" parent="1" source="8REWzd8MuH-BiJDe0KrL-42" target="8REWzd8MuH-BiJDe0KrL-41">
          <mxGeometry width="160" relative="1" as="geometry">
            <mxPoint x="480" y="410" as="sourcePoint" />
            <mxPoint x="640" y="410" as="targetPoint" />
          </mxGeometry>
        </mxCell>
        <mxCell id="8REWzd8MuH-BiJDe0KrL-73" value="Extends" style="endArrow=block;endSize=16;endFill=0;html=1;rounded=0;entryX=0.5;entryY=1;entryDx=0;entryDy=0;exitX=0.5;exitY=0;exitDx=0;exitDy=0;" edge="1" parent="1" source="8REWzd8MuH-BiJDe0KrL-46" target="8REWzd8MuH-BiJDe0KrL-41">
          <mxGeometry width="160" relative="1" as="geometry">
            <mxPoint x="420" y="450" as="sourcePoint" />
            <mxPoint x="580" y="450" as="targetPoint" />
          </mxGeometry>
        </mxCell>
        <mxCell id="8REWzd8MuH-BiJDe0KrL-74" value="Extends" style="endArrow=block;endSize=16;endFill=0;html=1;rounded=0;entryX=0;entryY=1;entryDx=0;entryDy=0;exitX=0.5;exitY=0;exitDx=0;exitDy=0;" edge="1" parent="1" source="8REWzd8MuH-BiJDe0KrL-41" target="8REWzd8MuH-BiJDe0KrL-38">
          <mxGeometry width="160" relative="1" as="geometry">
            <mxPoint x="750" y="240" as="sourcePoint" />
            <mxPoint x="910" y="240" as="targetPoint" />
          </mxGeometry>
        </mxCell>
        <mxCell id="8REWzd8MuH-BiJDe0KrL-75" value="Extends" style="endArrow=block;endSize=16;endFill=0;html=1;rounded=0;entryX=1;entryY=1;entryDx=0;entryDy=0;exitX=0.5;exitY=0;exitDx=0;exitDy=0;" edge="1" parent="1" source="8REWzd8MuH-BiJDe0KrL-39" target="8REWzd8MuH-BiJDe0KrL-38">
          <mxGeometry width="160" relative="1" as="geometry">
            <mxPoint x="1250" y="290" as="sourcePoint" />
            <mxPoint x="1410" y="290" as="targetPoint" />
          </mxGeometry>
        </mxCell>
      </root>
    </mxGraphModel>
  </diagram>
</mxfile>
